<?xml version="1.0" encoding="UTF-8"?>
<svg width="600" height="400" viewBox="0 0 600 400" fill="none" xmlns="http://www.w3.org/2000/svg">
  <!-- Background elements -->
  <circle cx="300" cy="200" r="150" fill="#F0F4FF" />
  <circle cx="300" cy="200" r="100" fill="#E0E8FF" />
  
  <!-- Decorative elements -->
  <circle cx="150" cy="100" r="20" fill="#4A6CF7" opacity="0.2" />
  <circle cx="450" cy="300" r="30" fill="#4A6CF7" opacity="0.2" />
  <circle cx="500" cy="120" r="15" fill="#4A6CF7" opacity="0.3" />
  <circle cx="100" cy="280" r="25" fill="#4A6CF7" opacity="0.3" />
  
  <!-- Computer/Device illustration -->
  <rect x="220" y="150" width="160" height="120" rx="5" fill="#FFFFFF" stroke="#4A6CF7" stroke-width="3" />
  <rect x="230" y="160" width="140" height="90" rx="2" fill="#4A6CF7" opacity="0.1" />
  
  <!-- Screen content -->
  <rect x="240" y="170" width="120" height="10" rx="2" fill="#4A6CF7" opacity="0.6" />
  <rect x="240" y="190" width="80" height="6" rx="2" fill="#4A6CF7" opacity="0.4" />
  <rect x="240" y="205" width="100" height="6" rx="2" fill="#4A6CF7" opacity="0.4" />
  <rect x="240" y="220" width="60" height="6" rx="2" fill="#4A6CF7" opacity="0.4" />
  <rect x="240" y="235" width="40" height="15" rx="3" fill="#4A6CF7" />
  
  <!-- Device stand -->
  <path d="M280 270 L260 300 L340 300 L320 270" fill="#4A6CF7" opacity="0.7" />
  <rect x="290" y="300" width="20" height="5" rx="2" fill="#4A6CF7" opacity="0.9" />
  
  <!-- Abstract code elements -->
  <rect x="400" y="160" width="40" height="6" rx="2" fill="#4A6CF7" opacity="0.5" />
  <rect x="420" y="175" width="60" height="6" rx="2" fill="#4A6CF7" opacity="0.5" />
  <rect x="440" y="190" width="40" height="6" rx="2" fill="#4A6CF7" opacity="0.5" />
  <rect x="410" y="205" width="70" height="6" rx="2" fill="#4A6CF7" opacity="0.5" />
  
  <rect x="130" y="180" width="50" height="6" rx="2" fill="#4A6CF7" opacity="0.5" />
  <rect x="150" y="195" width="30" height="6" rx="2" fill="#4A6CF7" opacity="0.5" />
  <rect x="110" y="210" width="70" height="6" rx="2" fill="#4A6CF7" opacity="0.5" />
  <rect x="140" y="225" width="40" height="6" rx="2" fill="#4A6CF7" opacity="0.5" />
</svg>